<mxfile host="app.diagrams.net" modified="2020-08-06T00:36:32.565Z" agent="5.0 (Windows NT 10.0; Win64; x64) AppleWebKit/537.36 (KHTML, like Gecko) Chrome/83.0.4103.97 Safari/537.36" etag="BEP5y_YL-G5IX8dwz3LJ" version="13.6.0" type="github" pages="2">
  <diagram id="vkHSAqvuVLFmnMc-gERQ" name="Page-1">
    <mxGraphModel dx="1221" dy="811" grid="1" gridSize="10" guides="1" tooltips="1" connect="1" arrows="1" fold="1" page="1" pageScale="1" pageWidth="850" pageHeight="1100" math="0" shadow="0">
      <root>
        <mxCell id="0" />
        <mxCell id="1" parent="0" />
        <mxCell id="gidcGa3Jhn72kaZIP9KM-67" style="edgeStyle=orthogonalEdgeStyle;rounded=0;orthogonalLoop=1;jettySize=auto;html=1;fontSize=11;fontColor=#007FFF;" edge="1" parent="1" source="gidcGa3Jhn72kaZIP9KM-63" target="gidcGa3Jhn72kaZIP9KM-65">
          <mxGeometry relative="1" as="geometry" />
        </mxCell>
        <mxCell id="gidcGa3Jhn72kaZIP9KM-63" value="&lt;font color=&quot;#050505&quot; size=&quot;1&quot;&gt;&lt;b style=&quot;font-size: 12px&quot;&gt;ADLS&lt;/b&gt;&lt;/font&gt;" style="rounded=1;whiteSpace=wrap;html=1;labelBackgroundColor=none;strokeColor=#FFCCE6;fontSize=11;fontColor=#007FFF;" vertex="1" parent="1">
          <mxGeometry x="20" y="18.55" width="270" height="101.45" as="geometry" />
        </mxCell>
        <mxCell id="OSCY4gfTOVEM4-6REEk--1" value="SQL MetaStore" style="shape=datastore;whiteSpace=wrap;html=1;" parent="1" vertex="1">
          <mxGeometry x="555" y="24.27" width="120" height="90" as="geometry" />
        </mxCell>
        <mxCell id="OSCY4gfTOVEM4-6REEk--18" value="PasswordKey" style="shape=partialRectangle;connectable=0;fillColor=none;top=0;left=0;bottom=0;right=0;align=left;spacingLeft=6;overflow=hidden;" parent="1" vertex="1">
          <mxGeometry x="70" y="330" width="150" height="30" as="geometry" />
        </mxCell>
        <mxCell id="OSCY4gfTOVEM4-6REEk--19" value="Enabled" style="shape=partialRectangle;connectable=0;fillColor=none;top=0;left=0;bottom=0;right=0;align=left;spacingLeft=6;overflow=hidden;" parent="1" vertex="1">
          <mxGeometry x="70" y="360" width="150" height="30" as="geometry" />
        </mxCell>
        <mxCell id="OSCY4gfTOVEM4-6REEk--2" value="SourceDatabases" style="shape=table;startSize=30;container=1;collapsible=1;childLayout=tableLayout;fixedRows=1;rowLines=0;fontStyle=1;align=center;resizeLast=1;fontColor=#007FFF;" parent="1" vertex="1">
          <mxGeometry x="40" y="180" width="180" height="270" as="geometry" />
        </mxCell>
        <mxCell id="OSCY4gfTOVEM4-6REEk--3" value="" style="shape=partialRectangle;collapsible=0;dropTarget=0;pointerEvents=0;fillColor=none;top=0;left=0;bottom=1;right=0;points=[[0,0.5],[1,0.5]];portConstraint=eastwest;" parent="OSCY4gfTOVEM4-6REEk--2" vertex="1">
          <mxGeometry y="30" width="180" height="30" as="geometry" />
        </mxCell>
        <mxCell id="OSCY4gfTOVEM4-6REEk--4" value="PK" style="shape=partialRectangle;connectable=0;fillColor=none;top=0;left=0;bottom=0;right=0;fontStyle=1;overflow=hidden;" parent="OSCY4gfTOVEM4-6REEk--3" vertex="1">
          <mxGeometry width="30" height="30" as="geometry" />
        </mxCell>
        <mxCell id="OSCY4gfTOVEM4-6REEk--5" value="DB_UniqueID" style="shape=partialRectangle;connectable=0;fillColor=none;top=0;left=0;bottom=0;right=0;align=left;spacingLeft=6;fontStyle=5;overflow=hidden;" parent="OSCY4gfTOVEM4-6REEk--3" vertex="1">
          <mxGeometry x="30" width="150" height="30" as="geometry" />
        </mxCell>
        <mxCell id="OSCY4gfTOVEM4-6REEk--6" value="" style="shape=partialRectangle;collapsible=0;dropTarget=0;pointerEvents=0;fillColor=none;top=0;left=0;bottom=0;right=0;points=[[0,0.5],[1,0.5]];portConstraint=eastwest;" parent="OSCY4gfTOVEM4-6REEk--2" vertex="1">
          <mxGeometry y="60" width="180" height="30" as="geometry" />
        </mxCell>
        <mxCell id="OSCY4gfTOVEM4-6REEk--7" value="" style="shape=partialRectangle;connectable=0;fillColor=none;top=0;left=0;bottom=0;right=0;editable=1;overflow=hidden;" parent="OSCY4gfTOVEM4-6REEk--6" vertex="1">
          <mxGeometry width="30" height="30" as="geometry" />
        </mxCell>
        <mxCell id="OSCY4gfTOVEM4-6REEk--8" value="SourceDBName" style="shape=partialRectangle;connectable=0;fillColor=none;top=0;left=0;bottom=0;right=0;align=left;spacingLeft=6;overflow=hidden;" parent="OSCY4gfTOVEM4-6REEk--6" vertex="1">
          <mxGeometry x="30" width="150" height="30" as="geometry" />
        </mxCell>
        <mxCell id="OSCY4gfTOVEM4-6REEk--9" value="" style="shape=partialRectangle;collapsible=0;dropTarget=0;pointerEvents=0;fillColor=none;top=0;left=0;bottom=0;right=0;points=[[0,0.5],[1,0.5]];portConstraint=eastwest;" parent="OSCY4gfTOVEM4-6REEk--2" vertex="1">
          <mxGeometry y="90" width="180" height="30" as="geometry" />
        </mxCell>
        <mxCell id="OSCY4gfTOVEM4-6REEk--10" value="" style="shape=partialRectangle;connectable=0;fillColor=none;top=0;left=0;bottom=0;right=0;editable=1;overflow=hidden;" parent="OSCY4gfTOVEM4-6REEk--9" vertex="1">
          <mxGeometry width="30" height="30" as="geometry" />
        </mxCell>
        <mxCell id="OSCY4gfTOVEM4-6REEk--11" value="HostName" style="shape=partialRectangle;connectable=0;fillColor=none;top=0;left=0;bottom=0;right=0;align=left;spacingLeft=6;overflow=hidden;" parent="OSCY4gfTOVEM4-6REEk--9" vertex="1">
          <mxGeometry x="30" width="150" height="30" as="geometry" />
        </mxCell>
        <mxCell id="OSCY4gfTOVEM4-6REEk--12" value="" style="shape=partialRectangle;collapsible=0;dropTarget=0;pointerEvents=0;fillColor=none;top=0;left=0;bottom=0;right=0;points=[[0,0.5],[1,0.5]];portConstraint=eastwest;" parent="OSCY4gfTOVEM4-6REEk--2" vertex="1">
          <mxGeometry y="120" width="180" height="30" as="geometry" />
        </mxCell>
        <mxCell id="OSCY4gfTOVEM4-6REEk--13" value="" style="shape=partialRectangle;connectable=0;fillColor=none;top=0;left=0;bottom=0;right=0;editable=1;overflow=hidden;" parent="OSCY4gfTOVEM4-6REEk--12" vertex="1">
          <mxGeometry width="30" height="30" as="geometry" />
        </mxCell>
        <mxCell id="OSCY4gfTOVEM4-6REEk--14" value="UserID" style="shape=partialRectangle;connectable=0;fillColor=none;top=0;left=0;bottom=0;right=0;align=left;spacingLeft=6;overflow=hidden;" parent="OSCY4gfTOVEM4-6REEk--12" vertex="1">
          <mxGeometry x="30" width="150" height="30" as="geometry" />
        </mxCell>
        <mxCell id="OSCY4gfTOVEM4-6REEk--41" style="edgeStyle=orthogonalEdgeStyle;rounded=0;orthogonalLoop=1;jettySize=auto;html=1;" parent="1" source="OSCY4gfTOVEM4-6REEk--3" target="OSCY4gfTOVEM4-6REEk--30" edge="1">
          <mxGeometry relative="1" as="geometry" />
        </mxCell>
        <mxCell id="OSCY4gfTOVEM4-6REEk--24" value="HiveSchemaName" style="shape=partialRectangle;connectable=0;fillColor=none;top=0;left=0;bottom=0;right=0;align=left;spacingLeft=6;overflow=hidden;" parent="1" vertex="1">
          <mxGeometry x="320" y="330" width="150" height="30" as="geometry" />
        </mxCell>
        <mxCell id="OSCY4gfTOVEM4-6REEk--25" value="Mode" style="shape=partialRectangle;connectable=0;fillColor=none;top=0;left=0;bottom=0;right=0;align=left;spacingLeft=6;overflow=hidden;" parent="1" vertex="1">
          <mxGeometry x="320" y="387" width="150" height="30" as="geometry" />
        </mxCell>
        <mxCell id="OSCY4gfTOVEM4-6REEk--39" value="FK" style="shape=partialRectangle;connectable=0;fillColor=none;top=0;left=0;bottom=0;right=0;fontStyle=1;overflow=hidden;" parent="1" vertex="1">
          <mxGeometry x="290" y="240" width="30" height="30" as="geometry" />
        </mxCell>
        <mxCell id="OSCY4gfTOVEM4-6REEk--40" value="DB_UniqueID" style="shape=partialRectangle;connectable=0;fillColor=none;top=0;left=0;bottom=0;right=0;align=left;spacingLeft=6;fontStyle=5;overflow=hidden;" parent="1" vertex="1">
          <mxGeometry x="320" y="240" width="150" height="30" as="geometry" />
        </mxCell>
        <mxCell id="OSCY4gfTOVEM4-6REEk--26" value="SourceTables" style="shape=table;startSize=30;container=1;collapsible=1;childLayout=tableLayout;fixedRows=1;rowLines=0;fontStyle=1;align=center;resizeLast=1;fontColor=#007FFF;" parent="1" vertex="1">
          <mxGeometry x="290" y="180" width="180" height="390" as="geometry" />
        </mxCell>
        <mxCell id="OSCY4gfTOVEM4-6REEk--27" value="" style="shape=partialRectangle;collapsible=0;dropTarget=0;pointerEvents=0;fillColor=none;top=0;left=0;bottom=1;right=0;points=[[0,0.5],[1,0.5]];portConstraint=eastwest;" parent="OSCY4gfTOVEM4-6REEk--26" vertex="1">
          <mxGeometry y="30" width="180" height="30" as="geometry" />
        </mxCell>
        <mxCell id="OSCY4gfTOVEM4-6REEk--28" value="PK" style="shape=partialRectangle;connectable=0;fillColor=none;top=0;left=0;bottom=0;right=0;fontStyle=1;overflow=hidden;" parent="OSCY4gfTOVEM4-6REEk--27" vertex="1">
          <mxGeometry width="30" height="30" as="geometry" />
        </mxCell>
        <mxCell id="OSCY4gfTOVEM4-6REEk--29" value="SourceTable_UniqueID" style="shape=partialRectangle;connectable=0;fillColor=none;top=0;left=0;bottom=0;right=0;align=left;spacingLeft=6;fontStyle=5;overflow=hidden;" parent="OSCY4gfTOVEM4-6REEk--27" vertex="1">
          <mxGeometry x="30" width="150" height="30" as="geometry" />
        </mxCell>
        <mxCell id="OSCY4gfTOVEM4-6REEk--30" value="" style="shape=partialRectangle;collapsible=0;dropTarget=0;pointerEvents=0;fillColor=none;top=0;left=0;bottom=0;right=0;points=[[0,0.5],[1,0.5]];portConstraint=eastwest;" parent="OSCY4gfTOVEM4-6REEk--26" vertex="1">
          <mxGeometry y="60" width="180" height="30" as="geometry" />
        </mxCell>
        <mxCell id="OSCY4gfTOVEM4-6REEk--31" value="" style="shape=partialRectangle;connectable=0;fillColor=none;top=0;left=0;bottom=0;right=0;editable=1;overflow=hidden;strokeColor=#FFCCE6;" parent="OSCY4gfTOVEM4-6REEk--30" vertex="1">
          <mxGeometry width="30" height="30" as="geometry" />
        </mxCell>
        <mxCell id="OSCY4gfTOVEM4-6REEk--32" value="" style="shape=partialRectangle;connectable=0;fillColor=none;top=0;left=0;bottom=0;right=0;align=left;spacingLeft=6;overflow=hidden;" parent="OSCY4gfTOVEM4-6REEk--30" vertex="1">
          <mxGeometry x="30" width="150" height="30" as="geometry" />
        </mxCell>
        <mxCell id="OSCY4gfTOVEM4-6REEk--33" value="" style="shape=partialRectangle;collapsible=0;dropTarget=0;pointerEvents=0;fillColor=none;top=0;left=0;bottom=0;right=0;points=[[0,0.5],[1,0.5]];portConstraint=eastwest;" parent="OSCY4gfTOVEM4-6REEk--26" vertex="1">
          <mxGeometry y="90" width="180" height="30" as="geometry" />
        </mxCell>
        <mxCell id="OSCY4gfTOVEM4-6REEk--34" value="" style="shape=partialRectangle;connectable=0;fillColor=none;top=0;left=0;bottom=0;right=0;editable=1;overflow=hidden;" parent="OSCY4gfTOVEM4-6REEk--33" vertex="1">
          <mxGeometry width="30" height="30" as="geometry" />
        </mxCell>
        <mxCell id="OSCY4gfTOVEM4-6REEk--35" value="SourceSchemaName" style="shape=partialRectangle;connectable=0;fillColor=none;top=0;left=0;bottom=0;right=0;align=left;spacingLeft=6;overflow=hidden;" parent="OSCY4gfTOVEM4-6REEk--33" vertex="1">
          <mxGeometry x="30" width="150" height="30" as="geometry" />
        </mxCell>
        <mxCell id="OSCY4gfTOVEM4-6REEk--36" value="" style="shape=partialRectangle;collapsible=0;dropTarget=0;pointerEvents=0;fillColor=none;top=0;left=0;bottom=0;right=0;points=[[0,0.5],[1,0.5]];portConstraint=eastwest;" parent="OSCY4gfTOVEM4-6REEk--26" vertex="1">
          <mxGeometry y="120" width="180" height="30" as="geometry" />
        </mxCell>
        <mxCell id="OSCY4gfTOVEM4-6REEk--37" value="" style="shape=partialRectangle;connectable=0;fillColor=none;top=0;left=0;bottom=0;right=0;editable=1;overflow=hidden;" parent="OSCY4gfTOVEM4-6REEk--36" vertex="1">
          <mxGeometry width="30" height="30" as="geometry" />
        </mxCell>
        <mxCell id="OSCY4gfTOVEM4-6REEk--38" value="SourceTableName" style="shape=partialRectangle;connectable=0;fillColor=none;top=0;left=0;bottom=0;right=0;align=left;spacingLeft=6;overflow=hidden;" parent="OSCY4gfTOVEM4-6REEk--36" vertex="1">
          <mxGeometry x="30" width="150" height="30" as="geometry" />
        </mxCell>
        <mxCell id="OSCY4gfTOVEM4-6REEk--43" value="FilterReset" style="shape=partialRectangle;connectable=0;fillColor=none;top=0;left=0;bottom=0;right=0;align=left;spacingLeft=6;overflow=hidden;" parent="1" vertex="1">
          <mxGeometry x="320" y="477" width="150" height="30" as="geometry" />
        </mxCell>
        <mxCell id="OSCY4gfTOVEM4-6REEk--44" value="FilterIncremental" style="shape=partialRectangle;connectable=0;fillColor=none;top=0;left=0;bottom=0;right=0;align=left;spacingLeft=6;overflow=hidden;" parent="1" vertex="1">
          <mxGeometry x="320" y="507" width="150" height="30" as="geometry" />
        </mxCell>
        <mxCell id="OSCY4gfTOVEM4-6REEk--45" value="PrimaryKey" style="shape=partialRectangle;connectable=0;fillColor=none;top=0;left=0;bottom=0;right=0;align=left;spacingLeft=6;overflow=hidden;" parent="1" vertex="1">
          <mxGeometry x="320" y="417" width="150" height="30" as="geometry" />
        </mxCell>
        <mxCell id="OSCY4gfTOVEM4-6REEk--46" value="AuditKey" style="shape=partialRectangle;connectable=0;fillColor=none;top=0;left=0;bottom=0;right=0;align=left;spacingLeft=6;overflow=hidden;" parent="1" vertex="1">
          <mxGeometry x="320" y="447" width="150" height="30" as="geometry" />
        </mxCell>
        <mxCell id="OSCY4gfTOVEM4-6REEk--47" value="Enabled" style="shape=partialRectangle;connectable=0;fillColor=none;top=0;left=0;bottom=0;right=0;align=left;spacingLeft=6;overflow=hidden;" parent="1" vertex="1">
          <mxGeometry x="320" y="537" width="150" height="30" as="geometry" />
        </mxCell>
        <mxCell id="OSCY4gfTOVEM4-6REEk--48" value="CreatedDate" style="shape=partialRectangle;connectable=0;fillColor=none;top=0;left=0;bottom=0;right=0;align=left;spacingLeft=6;overflow=hidden;" parent="1" vertex="1">
          <mxGeometry x="70" y="390" width="150" height="30" as="geometry" />
        </mxCell>
        <mxCell id="OSCY4gfTOVEM4-6REEk--49" value="UpdatedDate" style="shape=partialRectangle;connectable=0;fillColor=none;top=0;left=0;bottom=0;right=0;align=left;spacingLeft=6;overflow=hidden;" parent="1" vertex="1">
          <mxGeometry x="70" y="420" width="150" height="30" as="geometry" />
        </mxCell>
        <mxCell id="gidcGa3Jhn72kaZIP9KM-15" value="Mode" style="shape=partialRectangle;connectable=0;fillColor=none;top=0;left=0;bottom=0;right=0;align=left;spacingLeft=6;overflow=hidden;" vertex="1" parent="1">
          <mxGeometry x="540" y="456" width="150" height="30" as="geometry" />
        </mxCell>
        <mxCell id="gidcGa3Jhn72kaZIP9KM-16" value="FK" style="shape=partialRectangle;connectable=0;fillColor=none;top=0;left=0;bottom=0;right=0;fontStyle=1;overflow=hidden;" vertex="1" parent="1">
          <mxGeometry x="510" y="240" width="30" height="30" as="geometry" />
        </mxCell>
        <mxCell id="gidcGa3Jhn72kaZIP9KM-17" value="DB_UniqueID" style="shape=partialRectangle;connectable=0;fillColor=none;top=0;left=0;bottom=0;right=0;align=left;spacingLeft=6;fontStyle=5;overflow=hidden;" vertex="1" parent="1">
          <mxGeometry x="540" y="240" width="150" height="30" as="geometry" />
        </mxCell>
        <mxCell id="gidcGa3Jhn72kaZIP9KM-31" value="FilterReset" style="shape=partialRectangle;connectable=0;fillColor=none;top=0;left=0;bottom=0;right=0;align=left;spacingLeft=6;overflow=hidden;" vertex="1" parent="1">
          <mxGeometry x="540" y="546" width="150" height="30" as="geometry" />
        </mxCell>
        <mxCell id="gidcGa3Jhn72kaZIP9KM-32" value="FilterIncremental" style="shape=partialRectangle;connectable=0;fillColor=none;top=0;left=0;bottom=0;right=0;align=left;spacingLeft=6;overflow=hidden;" vertex="1" parent="1">
          <mxGeometry x="540" y="576" width="150" height="30" as="geometry" />
        </mxCell>
        <mxCell id="gidcGa3Jhn72kaZIP9KM-33" value="PrimaryKey" style="shape=partialRectangle;connectable=0;fillColor=none;top=0;left=0;bottom=0;right=0;align=left;spacingLeft=6;overflow=hidden;" vertex="1" parent="1">
          <mxGeometry x="540" y="486" width="150" height="30" as="geometry" />
        </mxCell>
        <mxCell id="gidcGa3Jhn72kaZIP9KM-34" value="AuditKey" style="shape=partialRectangle;connectable=0;fillColor=none;top=0;left=0;bottom=0;right=0;align=left;spacingLeft=6;overflow=hidden;" vertex="1" parent="1">
          <mxGeometry x="540" y="516" width="150" height="30" as="geometry" />
        </mxCell>
        <mxCell id="gidcGa3Jhn72kaZIP9KM-35" value="Enabled" style="shape=partialRectangle;connectable=0;fillColor=none;top=0;left=0;bottom=0;right=0;align=left;spacingLeft=6;overflow=hidden;" vertex="1" parent="1">
          <mxGeometry x="540" y="606" width="150" height="30" as="geometry" />
        </mxCell>
        <mxCell id="gidcGa3Jhn72kaZIP9KM-18" value="TableRunStatus" style="shape=table;startSize=30;container=1;collapsible=1;childLayout=tableLayout;fixedRows=1;rowLines=0;fontStyle=1;align=center;resizeLast=1;labelBackgroundColor=none;fontColor=#007FFF;" vertex="1" parent="1">
          <mxGeometry x="510" y="180" width="180" height="550" as="geometry" />
        </mxCell>
        <mxCell id="gidcGa3Jhn72kaZIP9KM-19" value="" style="shape=partialRectangle;collapsible=0;dropTarget=0;pointerEvents=0;fillColor=none;top=0;left=0;bottom=1;right=0;points=[[0,0.5],[1,0.5]];portConstraint=eastwest;" vertex="1" parent="gidcGa3Jhn72kaZIP9KM-18">
          <mxGeometry y="30" width="180" height="30" as="geometry" />
        </mxCell>
        <mxCell id="gidcGa3Jhn72kaZIP9KM-20" value="PK" style="shape=partialRectangle;connectable=0;fillColor=none;top=0;left=0;bottom=0;right=0;fontStyle=1;overflow=hidden;" vertex="1" parent="gidcGa3Jhn72kaZIP9KM-19">
          <mxGeometry width="30" height="30" as="geometry" />
        </mxCell>
        <mxCell id="gidcGa3Jhn72kaZIP9KM-21" value="TableRunStatus_UniqueID" style="shape=partialRectangle;connectable=0;fillColor=none;top=0;left=0;bottom=0;right=0;align=left;spacingLeft=6;fontStyle=5;overflow=hidden;fontSize=11;" vertex="1" parent="gidcGa3Jhn72kaZIP9KM-19">
          <mxGeometry x="30" width="150" height="30" as="geometry" />
        </mxCell>
        <mxCell id="gidcGa3Jhn72kaZIP9KM-22" value="" style="shape=partialRectangle;collapsible=0;dropTarget=0;pointerEvents=0;fillColor=none;top=0;left=0;bottom=0;right=0;points=[[0,0.5],[1,0.5]];portConstraint=eastwest;" vertex="1" parent="gidcGa3Jhn72kaZIP9KM-18">
          <mxGeometry y="60" width="180" height="30" as="geometry" />
        </mxCell>
        <mxCell id="gidcGa3Jhn72kaZIP9KM-23" value="" style="shape=partialRectangle;connectable=0;fillColor=none;top=0;left=0;bottom=0;right=0;editable=1;overflow=hidden;strokeColor=#FFCCE6;" vertex="1" parent="gidcGa3Jhn72kaZIP9KM-22">
          <mxGeometry width="30" height="30" as="geometry" />
        </mxCell>
        <mxCell id="gidcGa3Jhn72kaZIP9KM-24" value="" style="shape=partialRectangle;connectable=0;fillColor=none;top=0;left=0;bottom=0;right=0;align=left;spacingLeft=6;overflow=hidden;" vertex="1" parent="gidcGa3Jhn72kaZIP9KM-22">
          <mxGeometry x="30" width="150" height="30" as="geometry" />
        </mxCell>
        <mxCell id="gidcGa3Jhn72kaZIP9KM-25" value="" style="shape=partialRectangle;collapsible=0;dropTarget=0;pointerEvents=0;fillColor=none;top=0;left=0;bottom=0;right=0;points=[[0,0.5],[1,0.5]];portConstraint=eastwest;" vertex="1" parent="gidcGa3Jhn72kaZIP9KM-18">
          <mxGeometry y="90" width="180" height="30" as="geometry" />
        </mxCell>
        <mxCell id="gidcGa3Jhn72kaZIP9KM-26" value="" style="shape=partialRectangle;connectable=0;fillColor=none;top=0;left=0;bottom=0;right=0;editable=1;overflow=hidden;" vertex="1" parent="gidcGa3Jhn72kaZIP9KM-25">
          <mxGeometry width="30" height="30" as="geometry" />
        </mxCell>
        <mxCell id="gidcGa3Jhn72kaZIP9KM-27" value="" style="shape=partialRectangle;connectable=0;fillColor=none;top=0;left=0;bottom=0;right=0;align=left;spacingLeft=6;overflow=hidden;" vertex="1" parent="gidcGa3Jhn72kaZIP9KM-25">
          <mxGeometry x="30" width="150" height="30" as="geometry" />
        </mxCell>
        <mxCell id="gidcGa3Jhn72kaZIP9KM-28" value="" style="shape=partialRectangle;collapsible=0;dropTarget=0;pointerEvents=0;fillColor=none;top=0;left=0;bottom=0;right=0;points=[[0,0.5],[1,0.5]];portConstraint=eastwest;" vertex="1" parent="gidcGa3Jhn72kaZIP9KM-18">
          <mxGeometry y="120" width="180" height="30" as="geometry" />
        </mxCell>
        <mxCell id="gidcGa3Jhn72kaZIP9KM-29" value="" style="shape=partialRectangle;connectable=0;fillColor=none;top=0;left=0;bottom=0;right=0;editable=1;overflow=hidden;" vertex="1" parent="gidcGa3Jhn72kaZIP9KM-28">
          <mxGeometry width="30" height="30" as="geometry" />
        </mxCell>
        <mxCell id="gidcGa3Jhn72kaZIP9KM-30" value="BatchRunID" style="shape=partialRectangle;connectable=0;fillColor=none;top=0;left=0;bottom=0;right=0;align=left;spacingLeft=6;overflow=hidden;fontColor=#007FFF;fontStyle=1" vertex="1" parent="gidcGa3Jhn72kaZIP9KM-28">
          <mxGeometry x="30" width="150" height="30" as="geometry" />
        </mxCell>
        <mxCell id="gidcGa3Jhn72kaZIP9KM-43" value="" style="shape=partialRectangle;collapsible=0;dropTarget=0;pointerEvents=0;fillColor=none;top=0;left=0;bottom=1;right=0;points=[[0,0.5],[1,0.5]];portConstraint=eastwest;" vertex="1" parent="1">
          <mxGeometry x="510" y="270" width="180" height="30" as="geometry" />
        </mxCell>
        <mxCell id="gidcGa3Jhn72kaZIP9KM-44" value="FK" style="shape=partialRectangle;connectable=0;fillColor=none;top=0;left=0;bottom=0;right=0;fontStyle=1;overflow=hidden;" vertex="1" parent="gidcGa3Jhn72kaZIP9KM-43">
          <mxGeometry width="30" height="30" as="geometry" />
        </mxCell>
        <mxCell id="gidcGa3Jhn72kaZIP9KM-45" value="SourceTable_UniqueID" style="shape=partialRectangle;connectable=0;fillColor=none;top=0;left=0;bottom=0;right=0;align=left;spacingLeft=6;fontStyle=5;overflow=hidden;" vertex="1" parent="gidcGa3Jhn72kaZIP9KM-43">
          <mxGeometry x="30" width="150" height="30" as="geometry" />
        </mxCell>
        <mxCell id="gidcGa3Jhn72kaZIP9KM-49" value="StartDateTime" style="shape=partialRectangle;connectable=0;fillColor=none;top=0;left=0;bottom=0;right=0;align=left;spacingLeft=6;overflow=hidden;" vertex="1" parent="1">
          <mxGeometry x="540" y="636" width="150" height="30" as="geometry" />
        </mxCell>
        <mxCell id="gidcGa3Jhn72kaZIP9KM-50" value="EndDateTime" style="shape=partialRectangle;connectable=0;fillColor=none;top=0;left=0;bottom=0;right=0;align=left;spacingLeft=6;overflow=hidden;" vertex="1" parent="1">
          <mxGeometry x="540" y="666" width="150" height="30" as="geometry" />
        </mxCell>
        <mxCell id="gidcGa3Jhn72kaZIP9KM-51" value="Status" style="shape=partialRectangle;connectable=0;fillColor=none;top=0;left=0;bottom=0;right=0;align=left;spacingLeft=6;overflow=hidden;fontColor=#007FFF;fontStyle=1" vertex="1" parent="1">
          <mxGeometry x="540" y="696" width="150" height="30" as="geometry" />
        </mxCell>
        <mxCell id="gidcGa3Jhn72kaZIP9KM-52" value="HiveTableName" style="shape=partialRectangle;connectable=0;fillColor=none;top=0;left=0;bottom=0;right=0;align=left;spacingLeft=6;overflow=hidden;" vertex="1" parent="1">
          <mxGeometry x="320" y="358" width="150" height="30" as="geometry" />
        </mxCell>
        <mxCell id="gidcGa3Jhn72kaZIP9KM-53" value="HiveSchemaName" style="shape=partialRectangle;connectable=0;fillColor=none;top=0;left=0;bottom=0;right=0;align=left;spacingLeft=6;overflow=hidden;" vertex="1" parent="1">
          <mxGeometry x="540" y="389" width="150" height="30" as="geometry" />
        </mxCell>
        <mxCell id="gidcGa3Jhn72kaZIP9KM-54" value="SourceSchemaName" style="shape=partialRectangle;connectable=0;fillColor=none;top=0;left=0;bottom=0;right=0;align=left;spacingLeft=6;overflow=hidden;" vertex="1" parent="1">
          <mxGeometry x="540" y="329" width="150" height="30" as="geometry" />
        </mxCell>
        <mxCell id="gidcGa3Jhn72kaZIP9KM-55" value="SourceTableName" style="shape=partialRectangle;connectable=0;fillColor=none;top=0;left=0;bottom=0;right=0;align=left;spacingLeft=6;overflow=hidden;" vertex="1" parent="1">
          <mxGeometry x="540" y="359" width="150" height="30" as="geometry" />
        </mxCell>
        <mxCell id="gidcGa3Jhn72kaZIP9KM-56" value="HiveTableName" style="shape=partialRectangle;connectable=0;fillColor=none;top=0;left=0;bottom=0;right=0;align=left;spacingLeft=6;overflow=hidden;" vertex="1" parent="1">
          <mxGeometry x="540" y="417" width="150" height="30" as="geometry" />
        </mxCell>
        <mxCell id="gidcGa3Jhn72kaZIP9KM-57" value="" style="edgeStyle=orthogonalEdgeStyle;rounded=0;orthogonalLoop=1;jettySize=auto;html=1;fontSize=11;fontColor=#007FFF;" edge="1" parent="1" source="OSCY4gfTOVEM4-6REEk--27" target="gidcGa3Jhn72kaZIP9KM-43">
          <mxGeometry relative="1" as="geometry" />
        </mxCell>
        <mxCell id="gidcGa3Jhn72kaZIP9KM-59" value="" style="edgeStyle=orthogonalEdgeStyle;rounded=0;orthogonalLoop=1;jettySize=auto;html=1;fontSize=11;fontColor=#007FFF;" edge="1" parent="1" source="OSCY4gfTOVEM4-6REEk--30" target="gidcGa3Jhn72kaZIP9KM-43">
          <mxGeometry relative="1" as="geometry" />
        </mxCell>
        <mxCell id="gidcGa3Jhn72kaZIP9KM-60" value="&lt;font style=&quot;font-size: 12px&quot; color=&quot;#0066cc&quot;&gt;&lt;b&gt;Source DB 1&lt;/b&gt;&lt;/font&gt;" style="dashed=0;outlineConnect=0;html=1;align=center;labelPosition=center;verticalLabelPosition=bottom;verticalAlign=top;shape=mxgraph.weblogos.json;labelBackgroundColor=none;strokeColor=#FFCCE6;fontSize=11;fontColor=#007FFF;" vertex="1" parent="1">
          <mxGeometry x="40" y="37.1" width="40" height="52.9" as="geometry" />
        </mxCell>
        <mxCell id="gidcGa3Jhn72kaZIP9KM-61" value="&lt;font style=&quot;font-size: 12px&quot; color=&quot;#0066cc&quot;&gt;&lt;b&gt;Source DB 2&lt;/b&gt;&lt;/font&gt;" style="dashed=0;outlineConnect=0;html=1;align=center;labelPosition=center;verticalLabelPosition=bottom;verticalAlign=top;shape=mxgraph.weblogos.json;labelBackgroundColor=none;strokeColor=#FFCCE6;fontSize=11;fontColor=#007FFF;" vertex="1" parent="1">
          <mxGeometry x="210" y="37.1" width="40" height="52.9" as="geometry" />
        </mxCell>
        <mxCell id="gidcGa3Jhn72kaZIP9KM-68" style="edgeStyle=orthogonalEdgeStyle;rounded=0;orthogonalLoop=1;jettySize=auto;html=1;fontSize=11;fontColor=#007FFF;" edge="1" parent="1" source="gidcGa3Jhn72kaZIP9KM-65" target="OSCY4gfTOVEM4-6REEk--1">
          <mxGeometry relative="1" as="geometry" />
        </mxCell>
        <mxCell id="gidcGa3Jhn72kaZIP9KM-65" value="" style="shape=image;html=1;verticalAlign=top;verticalLabelPosition=bottom;labelBackgroundColor=#ffffff;imageAspect=0;aspect=fixed;image=https://cdn4.iconfinder.com/data/icons/logos-brands-5/24/scala-128.png;strokeColor=#FFCCE6;fontSize=11;fontColor=#007FFF;" vertex="1" parent="1">
          <mxGeometry x="388" y="32.14" width="74.27" height="74.27" as="geometry" />
        </mxCell>
        <mxCell id="gidcGa3Jhn72kaZIP9KM-69" value="&lt;b&gt;&lt;font style=&quot;font-size: 12px&quot;&gt;Spark/Scala Framework&lt;/font&gt;&lt;/b&gt;" style="text;html=1;strokeColor=none;fillColor=none;align=center;verticalAlign=middle;whiteSpace=wrap;rounded=0;labelBackgroundColor=none;fontSize=11;" vertex="1" parent="1">
          <mxGeometry x="400" y="120" width="40" height="20" as="geometry" />
        </mxCell>
        <mxCell id="gidcGa3Jhn72kaZIP9KM-70" value="&lt;b&gt;&lt;font style=&quot;font-size: 12px&quot;&gt;ADLS&lt;/font&gt;&lt;/b&gt;" style="text;html=1;strokeColor=none;fillColor=none;align=center;verticalAlign=middle;whiteSpace=wrap;rounded=0;labelBackgroundColor=none;fontSize=11;" vertex="1" parent="1">
          <mxGeometry x="135" y="130" width="40" height="20" as="geometry" />
        </mxCell>
        <mxCell id="gidcGa3Jhn72kaZIP9KM-73" value="Text" style="text;html=1;strokeColor=none;fillColor=none;align=center;verticalAlign=middle;whiteSpace=wrap;rounded=0;labelBackgroundColor=none;fontSize=11;fontColor=#000000;" vertex="1" parent="1">
          <mxGeometry x="330" y="410" width="40" height="20" as="geometry" />
        </mxCell>
        <mxCell id="gidcGa3Jhn72kaZIP9KM-74" value="&lt;b&gt;Status&lt;/b&gt;&lt;br&gt;Waiting&lt;br&gt;Running&lt;br&gt;Success&lt;br&gt;Failed&lt;br&gt;" style="text;html=1;strokeColor=none;fillColor=none;align=center;verticalAlign=middle;whiteSpace=wrap;rounded=0;labelBackgroundColor=none;fontSize=11;fontColor=#000000;" vertex="1" parent="1">
          <mxGeometry x="760" y="620" width="70" height="96" as="geometry" />
        </mxCell>
        <mxCell id="gidcGa3Jhn72kaZIP9KM-76" value="Job Visual Flow" style="swimlane;html=1;startSize=20;horizontal=1;childLayout=flowLayout;flowOrientation=north;resizable=0;interRankCellSpacing=50;containerType=tree;labelBackgroundColor=none;strokeColor=#FFCCE6;fontSize=11;fontColor=#000000;" vertex="1" parent="1">
          <mxGeometry x="50" y="670" width="140" height="190" as="geometry" />
        </mxCell>
        <mxCell id="gidcGa3Jhn72kaZIP9KM-77" value="Start" style="whiteSpace=wrap;html=1;" vertex="1" parent="gidcGa3Jhn72kaZIP9KM-76">
          <mxGeometry x="20" y="40" width="100" height="40" as="geometry" />
        </mxCell>
        <mxCell id="gidcGa3Jhn72kaZIP9KM-78" value="Task" style="whiteSpace=wrap;html=1;" vertex="1" parent="gidcGa3Jhn72kaZIP9KM-76">
          <mxGeometry x="20" y="130" width="100" height="40" as="geometry" />
        </mxCell>
        <mxCell id="gidcGa3Jhn72kaZIP9KM-79" value="" style="html=1;curved=1;noEdgeStyle=1;orthogonal=1;" edge="1" parent="gidcGa3Jhn72kaZIP9KM-76" source="gidcGa3Jhn72kaZIP9KM-77" target="gidcGa3Jhn72kaZIP9KM-78">
          <mxGeometry relative="1" as="geometry">
            <Array as="points">
              <mxPoint x="70" y="92" />
              <mxPoint x="70" y="118" />
            </Array>
          </mxGeometry>
        </mxCell>
      </root>
    </mxGraphModel>
  </diagram>
  <diagram id="kVW1ceD6wAGjza8AQW-f" name="Page-2">
    <mxGraphModel dx="1038" dy="689" grid="1" gridSize="10" guides="1" tooltips="1" connect="1" arrows="1" fold="1" page="1" pageScale="1" pageWidth="850" pageHeight="1100" math="0" shadow="0">
      <root>
        <mxCell id="t8ctUy6-qEljweguRVWg-0" />
        <mxCell id="t8ctUy6-qEljweguRVWg-1" parent="t8ctUy6-qEljweguRVWg-0" />
        <mxCell id="t8ctUy6-qEljweguRVWg-2" value="Job Flow Layout" style="swimlane;html=1;startSize=20;horizontal=1;childLayout=flowLayout;flowOrientation=north;resizable=0;interRankCellSpacing=50;containerType=tree;labelBackgroundColor=none;strokeColor=#FFCCE6;fontSize=11;fontColor=#000000;" vertex="1" parent="t8ctUy6-qEljweguRVWg-1">
          <mxGeometry x="290" y="210" width="140" height="190" as="geometry" />
        </mxCell>
        <mxCell id="t8ctUy6-qEljweguRVWg-3" value="Start" style="whiteSpace=wrap;html=1;" vertex="1" parent="t8ctUy6-qEljweguRVWg-2">
          <mxGeometry x="20" y="40" width="100" height="40" as="geometry" />
        </mxCell>
        <mxCell id="t8ctUy6-qEljweguRVWg-4" value="Appworx DB skeleton" style="whiteSpace=wrap;html=1;" vertex="1" parent="t8ctUy6-qEljweguRVWg-2">
          <mxGeometry x="20" y="130" width="100" height="40" as="geometry" />
        </mxCell>
        <mxCell id="t8ctUy6-qEljweguRVWg-5" value="" style="html=1;curved=1;noEdgeStyle=1;orthogonal=1;" edge="1" parent="t8ctUy6-qEljweguRVWg-2" source="t8ctUy6-qEljweguRVWg-3" target="t8ctUy6-qEljweguRVWg-4">
          <mxGeometry relative="1" as="geometry">
            <Array as="points">
              <mxPoint x="70" y="92" />
              <mxPoint x="70" y="118" />
            </Array>
          </mxGeometry>
        </mxCell>
        <mxCell id="t8ctUy6-qEljweguRVWg-13" value="" style="html=1;verticalLabelPosition=bottom;align=center;labelBackgroundColor=#ffffff;verticalAlign=top;strokeWidth=2;strokeColor=#0080F0;shadow=0;dashed=0;shape=mxgraph.ios7.icons.alarm_clock;fontSize=11;fontColor=#000000;" vertex="1" parent="t8ctUy6-qEljweguRVWg-1">
          <mxGeometry x="340" y="120" width="27" height="30" as="geometry" />
        </mxCell>
        <mxCell id="t8ctUy6-qEljweguRVWg-14" value="Text" style="text;html=1;strokeColor=none;fillColor=none;align=center;verticalAlign=middle;whiteSpace=wrap;rounded=0;labelBackgroundColor=none;fontSize=11;fontColor=#000000;" vertex="1" parent="t8ctUy6-qEljweguRVWg-1">
          <mxGeometry x="400" y="340" width="40" height="20" as="geometry" />
        </mxCell>
        <mxCell id="t8ctUy6-qEljweguRVWg-15" value="Appworx DB Schedule" style="text;html=1;strokeColor=none;fillColor=none;align=center;verticalAlign=middle;whiteSpace=wrap;rounded=0;labelBackgroundColor=none;fontSize=11;fontColor=#000000;" vertex="1" parent="t8ctUy6-qEljweguRVWg-1">
          <mxGeometry x="310" y="160" width="83.5" height="20" as="geometry" />
        </mxCell>
      </root>
    </mxGraphModel>
  </diagram>
</mxfile>
